<svg width="1965" height="902" viewBox="0 0 1965 902" fill="none" xmlns="http://www.w3.org/2000/svg">
<g filter="url(#filter0_d_1873_7754)">
<path d="M34.0002 212.889C34.0002 111.882 115.883 30 216.89 30H681.371C782.378 30 864.26 111.882 864.26 212.889V677.371C864.26 778.378 782.378 860.26 681.371 860.26H216.89C115.883 860.26 34.0002 778.378 34.0002 677.371V212.889Z" fill="white"/>
</g>
<path d="M33 307.689L311.688 307.689L311.689 29.001L220.88 29.001C117.117 29.001 33 113.118 33 216.881L33 307.689Z" fill="#FFCF00"/>
<path d="M311.689 307.689H33.0002V583.02H311.689V307.689Z" fill="#183EFF"/>
<path d="M587.019 29H311.688V307.688H587.019V29Z" fill="#183EFF"/>
<path d="M587.019 307.689H311.688V583.02H587.019V307.689Z" fill="#526FFF"/>
<path d="M587.019 583.025H311.688V861.714H587.019V583.025Z" fill="#183EFF"/>
<path d="M587.017 307.689L865.706 307.689L865.706 216.881C865.706 113.118 781.589 29.001 677.826 29.001L587.017 29.001L587.017 307.689Z" fill="#FF7A00"/>
<path d="M865.708 307.689H587.019V583.02H865.708V307.689Z" fill="#183EFF"/>
<path d="M587.017 861.715L677.826 861.715C781.589 861.715 865.706 777.598 865.706 673.835L865.706 583.026L587.017 583.026L587.017 861.715Z" fill="#00CF00"/>
<path d="M220.88 861.715L311.688 861.715L311.689 583.026L33 583.026L33 673.835C33 777.598 117.117 861.715 220.88 861.715Z" fill="#FF0000"/>
<g clip-path="url(#clip0_1873_7754)">
<path d="M1111.84 29H1149.63L1194.41 108.588H1194.89L1239.9 29H1277.69V190.07H1244.23V117.488C1244.23 111.534 1244.62 102.695 1245.43 90.9684L1245.67 74.3413L1244.47 74.5818C1242.7 78.6108 1240.53 83.7222 1237.95 89.886C1235.37 96.0798 1233.15 100.77 1231.2 103.988L1199.45 158.74H1189.57L1158.54 103.988C1156.77 100.921 1154.61 96.4406 1152.03 90.4873C1149.45 84.534 1147.14 79.2422 1145.04 74.5818L1143.12 74.3413L1144.32 90.9684C1144.65 102.695 1144.8 111.534 1144.8 117.488V190.07H1111.84V29Z" fill="#FE4D01"/>
<path d="M1308.36 89.2854C1312.92 79.4835 1319.59 72.117 1328.35 67.2161C1337.08 62.3151 1347.8 59.8496 1360.49 59.8496C1371.09 59.8496 1380.15 61.7138 1387.68 65.382C1395.22 69.0802 1401.01 74.5825 1405 81.8888C1409.02 89.1952 1411 98.095 1411 108.528V132.883H1330.15V111.655H1380.69V102.244C1380.69 98.2153 1380.06 94.9681 1378.77 92.4725C1377.48 89.9769 1375.35 88.2029 1372.41 87.1807C1369.44 86.1283 1365.23 85.6172 1359.77 85.6172H1357.37C1350.95 85.6172 1346.03 86.6094 1342.58 88.6239C1339.12 90.6384 1336.69 93.5549 1335.22 97.4336C1333.78 101.282 1333.06 106.664 1333.06 113.58V143.707C1333.06 149.329 1334.11 153.689 1336.18 156.726C1338.25 159.793 1341.8 162.018 1346.78 163.491C1351.76 164.934 1358.72 165.656 1367.73 165.656C1375.59 165.656 1382.85 165.205 1389.51 164.333C1396.18 163.461 1401.67 162.288 1405.99 160.845L1406.95 161.807V186.402C1402.45 188.176 1396.63 189.71 1389.51 190.973C1382.37 192.265 1374.63 192.897 1366.29 192.897C1349.93 192.897 1336.99 190.401 1327.54 185.41C1318.06 180.419 1311.36 173.203 1307.43 163.702C1303.5 154.23 1301.55 141.993 1301.55 127.05C1301.52 111.715 1303.8 99.0873 1308.36 89.2854Z" fill="#FE4D01"/>
<path d="M1496.36 187.544C1490.36 191.152 1482.76 192.956 1473.61 192.956C1460.46 192.956 1450.17 189.078 1442.79 181.26C1435.4 173.473 1431.71 161.687 1431.71 145.931V62.7656H1463.97V148.126C1463.97 153.749 1465.51 157.658 1468.54 159.822C1471.57 161.987 1476.79 163.07 1484.17 163.07C1488.97 163.07 1493.63 162.348 1498.13 160.905C1502.63 159.462 1506.32 157.627 1509.2 155.372L1513.28 171.278H1508.96C1506.59 178.494 1502.36 183.936 1496.36 187.544ZM1516.92 190.07L1508.72 169.083V62.7656H1540.99V190.07H1516.92Z" fill="#FE4D01"/>
<path d="M1115.77 627.996H1185.67C1209.86 627.996 1229.1 631.544 1243.3 638.61C1257.52 645.676 1267.7 656.59 1273.85 671.353C1280 686.116 1283.06 704.998 1283.06 728.03C1283.06 751.662 1280.39 770.875 1275.05 785.608C1269.71 800.371 1260.13 811.526 1246.3 819.103C1232.49 826.68 1213.16 830.468 1188.37 830.468H1115.77V627.996ZM1210.91 791.682C1216.86 790.479 1222.05 787.953 1226.49 784.105C1231.53 779.865 1235.22 773.942 1237.53 766.365C1239.84 758.788 1241.01 749.437 1241.01 738.313V719.22C1241.01 708.907 1240.2 700.338 1238.58 693.452C1236.96 686.597 1234.14 681.125 1230.12 677.096C1226.28 672.646 1221.09 669.519 1214.54 667.715C1208 665.911 1199.48 664.979 1188.97 664.979H1157.22V793.486H1188.97C1197.65 793.486 1204.97 792.884 1210.91 791.682Z" fill="#FE4D01"/>
<path d="M1312.71 612.694C1313.73 610.168 1315.74 608.364 1318.78 607.251C1321.81 606.139 1326.64 605.598 1333.3 605.598C1340.14 605.598 1345.04 606.169 1347.98 607.251C1350.89 608.364 1352.81 610.168 1353.74 612.694C1354.64 615.219 1355.09 619.429 1355.09 625.262C1355.09 631.125 1354.64 635.274 1353.74 637.679C1352.84 640.115 1350.92 641.889 1347.98 642.971C1345.07 644.084 1340.14 644.625 1333.3 644.625C1326.64 644.625 1321.81 644.084 1318.78 642.971C1315.74 641.859 1313.73 640.085 1312.71 637.679C1311.69 635.244 1311.21 631.125 1311.21 625.262C1311.21 619.429 1311.69 615.219 1312.71 612.694ZM1353.26 670.422V830.47H1313.01V670.422H1353.26Z" fill="#FE4D01"/>
<path d="M1399.54 889.732C1388.85 881.554 1383.51 870.369 1383.51 856.238C1383.51 847.939 1385.31 841.234 1388.94 836.093C1392.58 830.951 1397.92 828.065 1404.97 827.463V821.69L1425.23 827.463C1423.82 830.079 1422.77 833.176 1422.05 836.694C1421.33 840.212 1421 843.82 1421 847.458V850.795C1421 856.057 1421.69 860.056 1423.13 862.762C1424.54 865.498 1427.36 867.302 1431.59 868.204C1435.82 869.106 1442.37 869.557 1451.25 869.557H1460.31C1469.2 869.557 1475.89 869.106 1480.42 868.204C1484.95 867.302 1488.04 865.588 1489.67 863.063C1491.29 860.537 1492.1 856.749 1492.1 851.697V845.925C1492.1 841.084 1491.23 837.626 1489.51 835.611C1487.8 833.597 1484.11 832.575 1478.47 832.575H1437.62C1419.86 832.575 1407.25 829.448 1399.81 823.194C1392.34 816.94 1388.61 808.04 1388.61 796.524C1388.61 789.669 1390.11 783.896 1393.15 779.236C1396.18 774.575 1400.62 771.358 1406.47 769.524L1407.37 765.886L1423.4 775.267C1422.2 776.68 1421.24 778.454 1420.52 780.559C1419.8 782.693 1419.47 784.648 1419.47 786.482V789.519C1419.47 793.578 1420.52 796.584 1422.65 798.599C1424.78 800.613 1428.44 801.636 1433.69 801.636H1480.57C1497.11 801.636 1509.77 805.424 1518.54 813.001C1527.3 820.578 1531.68 831.342 1531.68 845.293C1531.68 858.011 1528.95 868.535 1523.52 876.803C1518.09 885.072 1509.86 891.356 1498.85 895.595C1487.86 899.835 1473.88 901.97 1456.95 901.97C1429.4 902 1410.22 897.911 1399.54 889.732ZM1415.9 774.996C1406.62 770.336 1399.6 763.931 1394.86 755.753C1390.11 747.575 1387.74 737.532 1387.74 725.596C1387.74 713.268 1390.35 702.775 1395.61 694.085C1400.86 685.396 1408.21 678.691 1417.7 673.94C1427.18 669.19 1437.86 666.814 1449.78 666.814C1462.08 666.814 1472.98 669.19 1482.46 673.94C1491.95 678.691 1499.3 685.396 1504.55 694.085C1509.8 702.775 1512.41 713.298 1512.41 725.596C1512.41 737.532 1509.95 747.575 1505 755.753C1500.05 763.931 1493 770.366 1483.81 774.996C1474.63 779.656 1463.28 781.972 1449.78 781.972C1436.45 781.972 1425.17 779.656 1415.9 774.996ZM1464.91 749.229C1468.33 748.026 1470.82 746.041 1472.32 743.305C1473.82 740.569 1474.6 737.081 1474.6 732.842V717.387C1474.6 712.727 1473.85 708.939 1472.32 706.022C1470.82 703.105 1468.3 701.031 1464.75 699.798C1461.21 698.565 1456.23 697.994 1449.78 697.994C1443.54 697.994 1438.49 698.656 1434.65 699.979C1430.81 701.301 1428.26 703.316 1426.94 706.052C1425.62 708.788 1424.96 712.577 1424.96 717.417V732.872C1424.96 737.111 1425.62 740.599 1426.94 743.335C1428.26 746.071 1430.78 748.026 1434.5 749.259C1438.22 750.461 1443.33 751.093 1449.78 751.093C1456.41 751.063 1461.45 750.461 1464.91 749.229ZM1462.77 670.423H1531.74V696.19L1503.92 700.129L1462.77 670.423Z" fill="#FE4D01"/>
<path d="M1555.36 612.694C1556.38 610.168 1558.39 608.364 1561.42 607.251C1564.46 606.139 1569.29 605.598 1575.95 605.598C1582.79 605.598 1587.68 606.169 1590.63 607.251C1593.54 608.364 1595.46 610.168 1596.39 612.694C1597.29 615.219 1597.74 619.429 1597.74 625.262C1597.74 631.125 1597.29 635.274 1596.39 637.679C1595.49 640.115 1593.57 641.889 1590.63 642.971C1587.71 644.084 1582.79 644.625 1575.95 644.625C1569.29 644.625 1564.46 644.084 1561.42 642.971C1558.39 641.859 1556.38 640.085 1555.36 637.679C1554.34 635.244 1553.86 631.125 1553.86 625.262C1553.83 619.429 1554.34 615.219 1555.36 612.694ZM1595.88 670.422V830.47H1555.63V670.422H1595.88Z" fill="#FE4D01"/>
<path d="M1730.51 670.423V704.67H1621V670.423H1730.51ZM1718.12 832.605C1711.66 833.598 1705.21 834.109 1698.76 834.109C1685.25 834.109 1674.36 831.523 1666.08 826.382C1657.79 821.24 1651.82 814.204 1648.07 805.305C1644.35 796.405 1642.46 785.821 1642.46 773.493V639.815L1668.78 629.201H1683V777.102C1683 782.363 1683.54 786.242 1684.65 788.768C1685.76 791.293 1687.77 793.218 1690.72 794.541C1693.63 795.863 1698.43 796.525 1705.09 796.525C1714.79 796.525 1723.34 796.134 1730.81 795.322L1732.64 797.126V829.569C1729.4 830.561 1724.57 831.583 1718.12 832.605Z" fill="#FE4D01"/>
<path d="M1765.48 746.973C1774.66 737.983 1788.83 733.473 1807.97 733.473C1817.04 733.473 1825.26 733.834 1832.64 734.526C1840 735.247 1845.79 736.179 1850.05 737.412H1854.28V761.676C1843.99 761.676 1836.24 761.736 1830.99 761.827C1825.74 761.947 1818 761.977 1807.7 761.977C1802.27 761.977 1798.19 763.18 1795.46 765.615C1792.73 768.051 1791.38 771.568 1791.38 776.229V785.309C1791.38 790.751 1793.03 794.75 1796.36 797.276C1799.69 799.802 1805.39 801.064 1813.47 801.064H1817.1C1823.94 801.064 1830.3 800.313 1836.15 798.779C1842.01 797.276 1846.84 795.201 1850.68 792.555L1856.11 808.311H1850.35C1847.74 817 1842.55 823.464 1834.77 827.704C1827 831.943 1816.56 834.078 1803.47 834.078C1787.14 834.078 1774.42 829.568 1765.36 820.578C1756.29 811.588 1751.73 799.32 1751.73 783.746C1751.7 768.231 1756.29 755.964 1765.48 746.973ZM1781.65 668.468C1789.91 667.356 1798.61 666.814 1807.67 666.814C1828.05 666.814 1844.29 669.641 1856.38 675.293C1868.48 680.946 1877.27 689.094 1882.7 699.708C1888.14 710.322 1890.87 724.002 1890.87 740.78V830.5H1861.51L1850.62 806.867V727.46C1850.62 720.394 1849.15 714.982 1846.24 711.254C1843.3 707.525 1838.68 704.94 1832.31 703.526C1825.95 702.113 1817.43 701.392 1806.74 701.392C1798.46 701.392 1789.79 701.963 1780.72 703.045C1771.66 704.158 1765.3 705.21 1761.66 706.233L1759.53 704.729V672.287C1766.02 670.843 1773.37 669.581 1781.65 668.468Z" fill="#FE4D01"/>
<path d="M1964.7 604.365V830.47H1924.45V604.365H1964.7Z" fill="#FE4D01"/>
<path d="M1118 502.077C1112.35 488.877 1111.96 470.777 1111.96 463.591C1111.96 459.442 1113.85 457.187 1117.24 457.187C1124.78 457.187 1152.27 485.871 1197.83 485.871C1221.93 485.871 1235.1 473.032 1235.1 456.826C1235.1 436.831 1212.5 429.675 1186.9 420.595C1153.02 408.899 1113.46 394.948 1113.46 348.163C1113.46 303.273 1154.13 272.725 1207.61 272.725C1257.31 272.725 1280.66 297.62 1280.66 304.025C1280.66 311.571 1267.1 332.318 1260.7 332.318C1252.81 332.318 1239.6 317.615 1209.11 317.615C1182.37 317.615 1168.45 327.808 1168.45 344.766C1168.45 363.257 1188.01 370.052 1211.36 377.599C1246.75 388.904 1290.8 401.743 1290.8 453.037C1290.8 498.679 1256.53 533.016 1198.91 533.016C1159.05 533.016 1121.78 511.879 1118 502.077Z" fill="#183EFF"/>
<path d="M1329.64 433.794V284.029C1329.64 279.489 1334.17 275.34 1357.52 275.34C1380.48 275.34 1385.4 279.489 1385.4 284.029V423.24C1385.4 463.981 1400.47 485.118 1435.1 485.118C1469.38 485.118 1484.8 463.981 1484.8 423.24V284.029C1484.8 279.489 1489.3 275.34 1512.65 275.34C1536 275.34 1540.54 279.489 1540.54 284.029V433.794C1540.54 489.629 1509.29 533.015 1435.1 533.015C1360.91 533.015 1329.64 489.629 1329.64 433.794Z" fill="#183EFF"/>
<path d="M1593.63 502.077C1587.98 488.877 1587.59 470.777 1587.59 463.591C1587.59 459.442 1589.49 457.187 1592.88 457.187C1600.41 457.187 1627.9 485.871 1673.46 485.871C1697.56 485.871 1710.73 473.032 1710.73 456.826C1710.73 436.831 1688.14 429.675 1662.53 420.595C1628.65 408.899 1589.1 394.948 1589.1 348.163C1589.1 303.273 1629.76 272.725 1683.24 272.725C1732.94 272.725 1756.29 297.62 1756.29 304.025C1756.29 311.571 1742.73 332.318 1736.33 332.318C1728.44 332.318 1715.24 317.615 1684.74 317.615C1658 317.615 1644.08 327.808 1644.08 344.766C1644.08 363.257 1663.65 370.052 1686.99 377.599C1722.38 388.904 1766.44 401.743 1766.44 453.037C1766.44 498.679 1732.16 533.016 1674.54 533.016C1634.68 533.016 1597.41 511.879 1593.63 502.077Z" fill="#183EFF"/>
</g>
<defs>
<filter id="filter0_d_1873_7754" x="0.000244141" y="0" width="898.26" height="898.26" filterUnits="userSpaceOnUse" color-interpolation-filters="sRGB">
<feFlood flood-opacity="0" result="BackgroundImageFix"/>
<feColorMatrix in="SourceAlpha" type="matrix" values="0 0 0 0 0 0 0 0 0 0 0 0 0 0 0 0 0 0 127 0" result="hardAlpha"/>
<feOffset dy="4"/>
<feGaussianBlur stdDeviation="17"/>
<feComposite in2="hardAlpha" operator="out"/>
<feColorMatrix type="matrix" values="0 0 0 0 0 0 0 0 0 0 0 0 0 0 0 0 0 0 0.18 0"/>
<feBlend mode="normal" in2="BackgroundImageFix" result="effect1_dropShadow_1873_7754"/>
<feBlend mode="normal" in="SourceGraphic" in2="effect1_dropShadow_1873_7754" result="shape"/>
</filter>
<clipPath id="clip0_1873_7754">
<rect width="852.854" height="873" fill="white" transform="translate(1111.84 29)"/>
</clipPath>
</defs>
</svg>
